# xmcd
#
# Track frame offsets:
#	150
#	15337
#	35914
#	52567
#	78869
#	98129
#
# Disc length: 1607 seconds
#
# Revision: 0
# Processed by: cddbd v1.5.2PL0 Copyright (c) Steve Scherf et al.
# Submitted via: EasyCDDAExtractor 15.2.5.1
#
DISCID=35064506
DTITLE=Brent Rubsam - Hard Rain
DYEAR=2002
DGENRE=Blues
TTITLE0=Destination Anywhere
TTITLE1=Tell Me Why
TTITLE2=Always and Forever
TTITLE3=Hard Rain
TTITLE4=Don't Back Down
TTITLE5=Gettin' It
EXTD=
EXTT0=
EXTT1=
EXTT2=
EXTT3=
EXTT4=
EXTT5=
PLAYORDER=
